<svg width="800" height="800" viewBox="0 0 800 800" fill="none" xmlns="http://www.w3.org/2000/svg">
<rect width="800" height="800" fill="white"/>
<rect x="77" y="183" width="511" height="62" rx="31" fill="#5BBBE1" stroke="black" stroke-width="18"/>
<path d="M545.369 252L515.998 685.112C514.361 709.254 494.301 728 470.104 728H194.345C170.165 728 150.113 709.28 148.453 685.158L118.641 252H545.369Z" fill="white" stroke="black" stroke-width="18"/>
<path d="M516 672V681C516 706.957 494.957 728 469 728H195C169.043 728 148 706.957 148 681V672H516Z" fill="#5BBBE1"/>
<path d="M516 672V681C516 706.957 494.957 728 469 728H195C169.043 728 148 706.957 148 681V672H516Z" stroke="black" stroke-width="18"/>
<rect x="109" y="254.368" width="12" height="582.878" rx="6" transform="rotate(-44.215 109 254.368)" fill="black"/>
<rect x="109" y="254.368" width="12" height="582.878" rx="6" transform="rotate(-44.215 109 254.368)" fill="black"/>
<rect x="109" y="254.368" width="12" height="582.878" rx="6" transform="rotate(-44.215 109 254.368)" fill="black"/>
<rect x="109" y="254.368" width="18" height="582.878" rx="9" transform="rotate(-44.215 109 254.368)" fill="black"/>
<rect x="116.912" y="362.889" width="18" height="432.278" rx="9" transform="rotate(-44.215 116.912 362.889)" fill="black"/>
<rect x="122.655" y="469.181" width="18" height="285.921" rx="9" transform="rotate(-44.215 122.655 469.181)" fill="black"/>
<rect x="129.546" y="576.653" width="18" height="139.564" rx="9" transform="rotate(-44.215 129.546 576.653)" fill="black"/>
<rect x="219.447" y="252.912" width="18" height="435.811" rx="9" transform="rotate(-44.215 219.447 252.912)" fill="black"/>
<rect x="328.35" y="249.867" width="18" height="288.574" rx="9" transform="rotate(-44.215 328.35 249.867)" fill="black"/>
<rect x="439.192" y="248.816" width="18" height="140.512" rx="9" transform="rotate(-44.215 439.192 248.816)" fill="black"/>
<rect x="543.169" y="243.32" width="18" height="578.466" rx="9" transform="rotate(43.862 543.169 243.32)" fill="black"/>
<rect x="232.123" y="241.171" width="18" height="166.011" rx="9" transform="rotate(43.862 232.123 241.171)" fill="black"/>
<rect x="444.402" y="242.664" width="18" height="451.244" rx="9" transform="rotate(43.862 444.402 242.664)" fill="black"/>
<rect x="338.153" y="242.396" width="18" height="307.816" rx="9" transform="rotate(43.862 338.153 242.396)" fill="black"/>
<rect x="522.496" y="550.349" width="18" height="161.54" rx="9" transform="rotate(43.862 522.496 550.349)" fill="black"/>
<rect x="529.886" y="441.835" width="18" height="313.486" rx="9" transform="rotate(43.862 529.886 441.835)" fill="black"/>
<rect x="536.216" y="345.465" width="18" height="445.031" rx="9" transform="rotate(43.862 536.216 345.465)" fill="black"/>
<path d="M581.359 653.769C578.82 659.19 589.439 639.128 551.346 642.087C550.833 642.127 550.41 642.555 550.403 643.07L549.626 705.797C549.62 706.229 549.893 706.615 550.302 706.755L577.378 716.036L635.776 735.047C635.886 735.083 636.002 735.099 636.118 735.095L673.885 733.844C674.838 733.812 675.21 732.591 674.437 732.033L636.266 704.515C635.577 704.019 635.782 702.944 636.604 702.735L716.724 682.36C717.767 682.095 717.712 680.595 716.653 680.406L669.286 671.97C668.845 671.891 668.511 671.53 668.466 671.085L665.951 645.897C665.881 645.194 665.124 644.784 664.497 645.108L647.748 653.754C647.231 654.022 646.595 653.791 646.368 653.254L638.763 635.223C638.496 634.59 637.686 634.409 637.174 634.866L620.806 649.508C620.735 649.571 620.673 649.644 620.623 649.725L604.945 674.912C604.364 675.846 602.919 675.292 603.112 674.208L615.944 602.165C616.114 601.207 615.128 600.724 614.553 601.51C606.887 611.997 583.197 649.845 581.359 653.769Z" fill="#34A853" stroke="black" stroke-width="13"/>
<path d="M348.5 80.2927C346.953 86.0659 343.075 98.0866 306.075 108.209C305.508 108.364 305.174 108.975 305.376 109.527L328.76 173.344C328.904 173.738 329.279 174 329.699 174H425.744C425.912 174 426.077 173.958 426.224 173.877L456.422 157.363C457.11 156.986 457.117 156.001 456.435 155.615L427.88 139.466C427.139 139.047 427.228 137.951 428.027 137.657L488.233 115.518C489.13 115.188 489.097 113.908 488.185 113.624L446.81 100.752C446.343 100.607 446.05 100.144 446.117 99.6594L451.07 64.0884C451.204 63.125 450.023 62.5566 449.354 63.2622L414.737 99.7551C414.349 100.163 413.702 100.172 413.304 99.774L402.707 89.1771C402.317 88.7866 401.683 88.7866 401.293 89.1771L391.195 99.2753C390.65 99.8196 389.721 99.5705 389.522 98.827L383.082 74.7942C383.029 74.5947 382.915 74.4167 382.756 74.2846L356.829 52.6907C356.382 52.3181 355.716 52.4049 355.447 52.9213C352.46 58.6561 349.677 75.8998 348.5 80.2927Z" fill="#5C5C5C" stroke="black" stroke-width="13"/>
<path d="M323.827 146.024L290.771 171.789C290.595 171.926 290.379 172 290.156 172H241.12C241.04 172 240.961 171.991 240.884 171.972L167.361 154.099C166.493 153.888 166.316 152.732 167.081 152.271L208.266 127.443C208.688 127.188 208.862 126.663 208.674 126.207L182.494 62.4225C182.146 61.5732 183.03 60.7424 183.856 61.1431L265.408 100.713C265.767 100.887 266.196 100.831 266.498 100.57L311.436 61.7814C312.141 61.173 313.222 61.7735 313.078 62.6934L305.553 110.662C305.519 110.881 305.558 111.105 305.665 111.3L324.089 144.753C324.326 145.183 324.215 145.722 323.827 146.024Z" fill="#B1B1B1" stroke="black" stroke-width="13"/>
</svg>
