<svg width="800" height="800" viewBox="0 0 800 800" fill="none" xmlns="http://www.w3.org/2000/svg">
<rect width="800" height="800" fill="white"/>
<rect x="142" y="188" width="517" height="58" rx="29" fill="#5BBBE1" stroke="black" stroke-width="12"/>
<path d="M616.579 247L586.991 683.315C585.247 709.031 563.879 729 538.104 729H262.345C236.589 729 215.228 709.06 213.46 683.364L183.427 247H616.579Z" fill="white" stroke="black" stroke-width="12"/>
<path d="M587 667V679C587 706.614 564.614 729 537 729H263C235.386 729 213 706.614 213 679V667H587Z" fill="#5BBBE1"/>
<path d="M587 667V679C587 706.614 564.614 729 537 729H263C235.386 729 213 706.614 213 679V667H587Z" stroke="black" stroke-width="12"/>
<rect x="177" y="252.368" width="12" height="582.878" rx="6" transform="rotate(-44.215 177 252.368)" fill="black"/>
<rect x="177" y="252.368" width="12" height="582.878" rx="6" transform="rotate(-44.215 177 252.368)" fill="black"/>
<rect x="177" y="252.368" width="12" height="582.878" rx="6" transform="rotate(-44.215 177 252.368)" fill="black"/>
<rect x="177" y="252.368" width="12" height="582.878" rx="6" transform="rotate(-44.215 177 252.368)" fill="black"/>
<rect x="184.912" y="360.889" width="12" height="432.278" rx="6" transform="rotate(-44.215 184.912 360.889)" fill="black"/>
<rect x="190.655" y="467.181" width="12" height="285.921" rx="6" transform="rotate(-44.215 190.655 467.181)" fill="black"/>
<rect x="197.546" y="574.653" width="12" height="139.564" rx="6" transform="rotate(-44.215 197.546 574.653)" fill="black"/>
<rect x="287.447" y="250.912" width="12" height="438.784" rx="6" transform="rotate(-44.215 287.447 250.912)" fill="black"/>
<rect x="396.35" y="247.867" width="12" height="288.574" rx="6" transform="rotate(-44.215 396.35 247.867)" fill="black"/>
<rect x="507.192" y="246.816" width="12" height="144.535" rx="6" transform="rotate(-44.215 507.192 246.816)" fill="black"/>
<rect x="611.169" y="241.32" width="12" height="578.466" rx="6" transform="rotate(43.862 611.169 241.32)" fill="black"/>
<rect x="300.123" y="239.17" width="12" height="166.011" rx="6" transform="rotate(43.862 300.123 239.17)" fill="black"/>
<rect x="512.402" y="240.664" width="12" height="451.244" rx="6" transform="rotate(43.862 512.402 240.664)" fill="black"/>
<rect x="406.153" y="240.396" width="12" height="307.816" rx="6" transform="rotate(43.862 406.153 240.396)" fill="black"/>
<rect x="594.199" y="544.496" width="12" height="166.884" rx="6" transform="rotate(43.862 594.199 544.496)" fill="black"/>
<rect x="601.517" y="436.057" width="12" height="318.726" rx="6" transform="rotate(43.862 601.517 436.057)" fill="black"/>
<rect x="607.997" y="339.532" width="12" height="450.487" rx="6" transform="rotate(43.862 607.997 339.532)" fill="black"/>
<path d="M399.827 159.024L366.771 184.789C366.595 184.926 366.379 185 366.156 185H317.12C317.04 185 316.961 184.991 316.884 184.972L243.361 167.099C242.493 166.888 242.316 165.732 243.081 165.271L284.266 140.443C284.688 140.188 284.862 139.663 284.674 139.207L258.494 75.4225C258.146 74.5732 259.03 73.7424 259.856 74.1431L341.408 113.713C341.767 113.887 342.196 113.831 342.498 113.57L387.436 74.7814C388.141 74.173 389.222 74.7735 389.078 75.6934L381.553 123.662C381.519 123.881 381.558 124.105 381.665 124.3L400.089 157.753C400.326 158.183 400.215 158.722 399.827 159.024Z" fill="#B1B1B1" stroke="black" stroke-width="13"/>
<path d="M424.5 93.2927C422.953 99.0659 419.075 111.087 382.075 121.209C381.508 121.364 381.174 121.975 381.376 122.527L404.76 186.344C404.904 186.738 405.279 187 405.699 187H501.744C501.912 187 502.077 186.958 502.224 186.877L532.422 170.363C533.11 169.986 533.117 169.001 532.435 168.615L503.88 152.466C503.139 152.047 503.228 150.951 504.027 150.657L564.233 128.518C565.13 128.188 565.097 126.908 564.185 126.624L522.81 113.752C522.343 113.607 522.05 113.144 522.117 112.659L527.07 77.0884C527.204 76.125 526.023 75.5566 525.354 76.2622L490.737 112.755C490.349 113.163 489.702 113.172 489.304 112.774L478.707 102.177C478.317 101.787 477.683 101.787 477.293 102.177L467.195 112.275C466.65 112.82 465.721 112.571 465.522 111.827L459.082 87.7942C459.029 87.5947 458.915 87.4167 458.756 87.2846L432.829 65.6907C432.382 65.3181 431.716 65.4049 431.447 65.9213C428.46 71.6561 425.677 88.8998 424.5 93.2927Z" fill="#5C5C5C" stroke="black" stroke-width="13"/>
</svg>
