<svg width="800" height="800" viewBox="0 0 800 800" fill="none" xmlns="http://www.w3.org/2000/svg">
<rect width="800" height="800" fill="white"/>
<rect x="71" y="180" width="517" height="58" rx="29" fill="#5BBBE1" stroke="black" stroke-width="12"/>
<path d="M545.579 239L515.991 675.315C514.247 701.031 492.879 721 467.104 721H191.345C165.589 721 144.228 701.06 142.46 675.364L112.427 239H545.579Z" fill="white" stroke="black" stroke-width="12"/>
<path d="M516 659V671C516 698.614 493.614 721 466 721H192C164.386 721 142 698.614 142 671V659H516Z" fill="#5BBBE1"/>
<path d="M516 659V671C516 698.614 493.614 721 466 721H192C164.386 721 142 698.614 142 671V659H516Z" stroke="black" stroke-width="12"/>
<rect x="106" y="244.368" width="12" height="582.878" rx="6" transform="rotate(-44.215 106 244.368)" fill="black"/>
<rect x="106" y="244.368" width="12" height="582.878" rx="6" transform="rotate(-44.215 106 244.368)" fill="black"/>
<rect x="106" y="244.368" width="12" height="582.878" rx="6" transform="rotate(-44.215 106 244.368)" fill="black"/>
<rect x="106" y="244.368" width="12" height="582.878" rx="6" transform="rotate(-44.215 106 244.368)" fill="black"/>
<rect x="113.912" y="352.889" width="12" height="432.278" rx="6" transform="rotate(-44.215 113.912 352.889)" fill="black"/>
<rect x="119.655" y="459.181" width="12" height="285.921" rx="6" transform="rotate(-44.215 119.655 459.181)" fill="black"/>
<rect x="126.546" y="566.653" width="12" height="139.564" rx="6" transform="rotate(-44.215 126.546 566.653)" fill="black"/>
<rect x="216.447" y="242.912" width="12" height="438.784" rx="6" transform="rotate(-44.215 216.447 242.912)" fill="black"/>
<rect x="325.35" y="239.867" width="12" height="288.574" rx="6" transform="rotate(-44.215 325.35 239.867)" fill="black"/>
<rect x="436.192" y="238.816" width="12" height="144.535" rx="6" transform="rotate(-44.215 436.192 238.816)" fill="black"/>
<rect x="540.169" y="233.32" width="12" height="578.466" rx="6" transform="rotate(43.862 540.169 233.32)" fill="black"/>
<rect x="229.123" y="231.17" width="12" height="166.011" rx="6" transform="rotate(43.862 229.123 231.17)" fill="black"/>
<rect x="441.402" y="232.664" width="12" height="451.244" rx="6" transform="rotate(43.862 441.402 232.664)" fill="black"/>
<rect x="335.153" y="232.396" width="12" height="307.816" rx="6" transform="rotate(43.862 335.153 232.396)" fill="black"/>
<rect x="523.199" y="536.496" width="12" height="166.884" rx="6" transform="rotate(43.862 523.199 536.496)" fill="black"/>
<rect x="530.517" y="428.057" width="12" height="318.726" rx="6" transform="rotate(43.862 530.517 428.057)" fill="black"/>
<rect x="536.997" y="331.532" width="12" height="450.487" rx="6" transform="rotate(43.862 536.997 331.532)" fill="black"/>
<path d="M328.827 151.024L295.771 176.789C295.595 176.926 295.379 177 295.156 177H246.12C246.04 177 245.961 176.991 245.884 176.972L172.361 159.099C171.493 158.888 171.316 157.732 172.081 157.271L213.266 132.443C213.688 132.188 213.862 131.663 213.674 131.207L187.494 67.4225C187.146 66.5732 188.03 65.7424 188.856 66.1431L270.408 105.713C270.767 105.887 271.196 105.831 271.498 105.57L316.436 66.7814C317.141 66.173 318.222 66.7735 318.078 67.6934L310.553 115.662C310.519 115.881 310.558 116.105 310.665 116.3L329.089 149.753C329.326 150.183 329.215 150.722 328.827 151.024Z" fill="#B1B1B1" stroke="black" stroke-width="13"/>
<path d="M353.5 85.2927C351.953 91.0659 348.075 103.087 311.075 113.209C310.508 113.364 310.174 113.975 310.376 114.527L333.76 178.344C333.904 178.738 334.279 179 334.699 179H430.744C430.912 179 431.077 178.958 431.224 178.877L461.422 162.363C462.11 161.986 462.117 161.001 461.435 160.615L432.88 144.466C432.139 144.047 432.228 142.951 433.027 142.657L493.233 120.518C494.13 120.188 494.097 118.908 493.185 118.624L451.81 105.752C451.343 105.607 451.05 105.144 451.117 104.659L456.07 69.0884C456.204 68.125 455.023 67.5566 454.354 68.2622L419.737 104.755C419.349 105.163 418.702 105.172 418.304 104.774L407.707 94.1771C407.317 93.7866 406.683 93.7866 406.293 94.1771L396.195 104.275C395.65 104.82 394.721 104.571 394.522 103.827L388.082 79.7942C388.029 79.5947 387.915 79.4167 387.756 79.2846L361.829 57.6907C361.382 57.3181 360.716 57.4049 360.447 57.9213C357.46 63.6561 354.677 80.8998 353.5 85.2927Z" fill="#5C5C5C" stroke="black" stroke-width="13"/>
<path d="M583.359 647.769C580.82 653.19 591.439 633.128 553.346 636.087C552.834 636.127 552.41 636.555 552.403 637.07L551.626 699.797C551.621 700.229 551.893 700.615 552.302 700.755L579.379 710.036L637.776 729.047C637.886 729.083 638.002 729.099 638.118 729.095L675.885 727.844C676.838 727.812 677.21 726.591 676.437 726.033L638.266 698.515C637.578 698.019 637.782 696.944 638.605 696.735L718.724 676.36C719.767 676.095 719.712 674.595 718.653 674.406L671.286 665.97C670.846 665.891 670.511 665.53 670.466 665.085L667.951 639.897C667.881 639.194 667.124 638.784 666.497 639.108L649.749 647.754C649.231 648.022 648.595 647.791 648.368 647.254L640.763 629.223C640.496 628.59 639.686 628.409 639.175 628.866L622.806 643.508C622.735 643.571 622.674 643.644 622.623 643.725L606.945 668.912C606.364 669.846 604.919 669.292 605.112 668.208L617.944 596.165C618.114 595.207 617.128 594.724 616.553 595.51C608.887 605.997 585.197 643.845 583.359 647.769Z" fill="#34A853" stroke="black" stroke-width="13"/>
</svg>
