<svg width="700" height="700" viewBox="0 0 700 700" fill="none" xmlns="http://www.w3.org/2000/svg">
<rect width="700" height="700" fill="white"/>
<rect x="92" y="79" width="517" height="58" rx="29" fill="#5BBBE1" stroke="black" stroke-width="12"/>
<path d="M566.579 138L536.991 574.315C535.247 600.031 513.879 620 488.104 620H212.345C186.589 620 165.228 600.06 163.46 574.364L133.427 138H566.579Z" fill="white" stroke="black" stroke-width="12"/>
<path d="M537 558V570C537 597.614 514.614 620 487 620H213C185.386 620 163 597.614 163 570V558H537Z" fill="#5BBBE1"/>
<path d="M537 558V570C537 597.614 514.614 620 487 620H213C185.386 620 163 597.614 163 570V558H537Z" stroke="black" stroke-width="12"/>
<rect x="127" y="143.368" width="12" height="582.878" rx="6" transform="rotate(-44.215 127 143.368)" fill="black"/>
<rect x="127" y="143.368" width="12" height="582.878" rx="6" transform="rotate(-44.215 127 143.368)" fill="black"/>
<rect x="127" y="143.368" width="12" height="582.878" rx="6" transform="rotate(-44.215 127 143.368)" fill="black"/>
<rect x="127" y="143.368" width="12" height="582.878" rx="6" transform="rotate(-44.215 127 143.368)" fill="black"/>
<rect x="134.912" y="251.889" width="12" height="432.278" rx="6" transform="rotate(-44.215 134.912 251.889)" fill="black"/>
<rect x="140.655" y="358.181" width="12" height="285.921" rx="6" transform="rotate(-44.215 140.655 358.181)" fill="black"/>
<rect x="147.546" y="465.653" width="12" height="139.564" rx="6" transform="rotate(-44.215 147.546 465.653)" fill="black"/>
<rect x="237.447" y="141.912" width="12" height="438.784" rx="6" transform="rotate(-44.215 237.447 141.912)" fill="black"/>
<rect x="346.35" y="138.867" width="12" height="288.574" rx="6" transform="rotate(-44.215 346.35 138.867)" fill="black"/>
<rect x="457.192" y="137.816" width="12" height="144.535" rx="6" transform="rotate(-44.215 457.192 137.816)" fill="black"/>
<rect x="561.169" y="132.32" width="12" height="578.466" rx="6" transform="rotate(43.862 561.169 132.32)" fill="black"/>
<rect x="250.123" y="130.17" width="12" height="166.011" rx="6" transform="rotate(43.862 250.123 130.17)" fill="black"/>
<rect x="462.402" y="131.664" width="12" height="451.244" rx="6" transform="rotate(43.862 462.402 131.664)" fill="black"/>
<rect x="356.153" y="131.396" width="12" height="307.816" rx="6" transform="rotate(43.862 356.153 131.396)" fill="black"/>
<rect x="544.199" y="435.496" width="12" height="166.884" rx="6" transform="rotate(43.862 544.199 435.496)" fill="black"/>
<rect x="551.517" y="327.057" width="12" height="318.726" rx="6" transform="rotate(43.862 551.517 327.057)" fill="black"/>
<rect x="557.997" y="230.532" width="12" height="450.487" rx="6" transform="rotate(43.862 557.997 230.532)" fill="black"/>
</svg>
