<svg width="800" height="800" viewBox="0 0 800 800" fill="none" xmlns="http://www.w3.org/2000/svg">
<rect width="800" height="800" fill="white"/>
<rect x="145" y="189" width="511" height="62" rx="31" fill="#5BBBE1" stroke="black" stroke-width="18"/>
<path d="M613.369 258L583.998 691.112C582.361 715.254 562.301 734 538.104 734H262.345C238.165 734 218.113 715.28 216.453 691.158L186.641 258H613.369Z" fill="white" stroke="black" stroke-width="18"/>
<path d="M584 678V687C584 712.957 562.957 734 537 734H263C237.043 734 216 712.957 216 687V678H584Z" fill="#5BBBE1"/>
<path d="M584 678V687C584 712.957 562.957 734 537 734H263C237.043 734 216 712.957 216 687V678H584Z" stroke="black" stroke-width="18"/>
<rect x="177" y="260.368" width="12" height="582.878" rx="6" transform="rotate(-44.215 177 260.368)" fill="black"/>
<rect x="177" y="260.368" width="12" height="582.878" rx="6" transform="rotate(-44.215 177 260.368)" fill="black"/>
<rect x="177" y="260.368" width="12" height="582.878" rx="6" transform="rotate(-44.215 177 260.368)" fill="black"/>
<rect x="177" y="260.368" width="18" height="582.878" rx="9" transform="rotate(-44.215 177 260.368)" fill="black"/>
<rect x="184.912" y="368.889" width="18" height="432.278" rx="9" transform="rotate(-44.215 184.912 368.889)" fill="black"/>
<rect x="190.655" y="475.181" width="18" height="285.921" rx="9" transform="rotate(-44.215 190.655 475.181)" fill="black"/>
<rect x="197.546" y="582.653" width="18" height="139.564" rx="9" transform="rotate(-44.215 197.546 582.653)" fill="black"/>
<rect x="287.447" y="258.912" width="18" height="435.811" rx="9" transform="rotate(-44.215 287.447 258.912)" fill="black"/>
<rect x="396.35" y="255.867" width="18" height="288.574" rx="9" transform="rotate(-44.215 396.35 255.867)" fill="black"/>
<rect x="507.192" y="254.816" width="18" height="140.512" rx="9" transform="rotate(-44.215 507.192 254.816)" fill="black"/>
<rect x="611.169" y="249.32" width="18" height="578.466" rx="9" transform="rotate(43.862 611.169 249.32)" fill="black"/>
<rect x="300.123" y="247.171" width="18" height="166.011" rx="9" transform="rotate(43.862 300.123 247.171)" fill="black"/>
<rect x="512.402" y="248.664" width="18" height="451.244" rx="9" transform="rotate(43.862 512.402 248.664)" fill="black"/>
<rect x="406.153" y="248.396" width="18" height="307.816" rx="9" transform="rotate(43.862 406.153 248.396)" fill="black"/>
<rect x="590.496" y="556.349" width="18" height="161.54" rx="9" transform="rotate(43.862 590.496 556.349)" fill="black"/>
<rect x="597.886" y="447.835" width="18" height="313.486" rx="9" transform="rotate(43.862 597.886 447.835)" fill="black"/>
<rect x="604.216" y="351.465" width="18" height="445.031" rx="9" transform="rotate(43.862 604.216 351.465)" fill="black"/>
<path d="M391.827 152.024L358.771 177.789C358.595 177.926 358.379 178 358.156 178H309.12C309.04 178 308.961 177.991 308.884 177.972L235.361 160.099C234.493 159.888 234.316 158.732 235.081 158.271L276.266 133.443C276.688 133.188 276.862 132.663 276.674 132.207L250.494 68.4225C250.146 67.5732 251.03 66.7424 251.856 67.1431L333.408 106.713C333.767 106.887 334.196 106.831 334.498 106.57L379.436 67.7814C380.141 67.173 381.222 67.7735 381.078 68.6934L373.553 116.662C373.519 116.881 373.558 117.105 373.665 117.3L392.089 150.753C392.326 151.183 392.215 151.722 391.827 152.024Z" fill="#B1B1B1" stroke="black" stroke-width="13"/>
<path d="M416.5 86.2927C414.953 92.0659 411.075 104.087 374.075 114.209C373.508 114.364 373.174 114.975 373.376 115.527L396.76 179.344C396.904 179.738 397.279 180 397.699 180H493.744C493.912 180 494.077 179.958 494.224 179.877L524.422 163.363C525.11 162.986 525.117 162.001 524.435 161.615L495.88 145.466C495.139 145.047 495.228 143.951 496.027 143.657L556.233 121.518C557.13 121.188 557.097 119.908 556.185 119.624L514.81 106.752C514.343 106.607 514.05 106.144 514.117 105.659L519.07 70.0884C519.204 69.125 518.023 68.5566 517.354 69.2622L482.737 105.755C482.349 106.163 481.702 106.172 481.304 105.774L470.707 95.1771C470.317 94.7866 469.683 94.7866 469.293 95.1771L459.195 105.275C458.65 105.82 457.721 105.571 457.522 104.827L451.082 80.7942C451.029 80.5947 450.915 80.4167 450.756 80.2846L424.829 58.6907C424.382 58.3181 423.716 58.4049 423.447 58.9213C420.46 64.6561 417.677 81.8998 416.5 86.2927Z" fill="#5C5C5C" stroke="black" stroke-width="13"/>
</svg>
